<svg id="icon_contact" xmlns="http://www.w3.org/2000/svg" width="17.948" height="14.805" viewBox="0 0 17.948 14.805">
  <path id="Path_34352" data-name="Path 34352" d="M107.448,187.7H91.777a.577.577,0,0,0-.577.577v10.675a.577.577,0,0,0,.577.577h15.671a.577.577,0,0,0,.577-.577V188.277A.577.577,0,0,0,107.448,187.7Z" transform="translate(-90.637 -187.135)" fill="#e2e3e5"/>
  <path id="Path_34353" data-name="Path 34353" d="M81.011,160.6H65.34a1.14,1.14,0,0,0-1.14,1.14v10.675a1.14,1.14,0,0,0,1.14,1.14H76.161a.472.472,0,0,0,.11.09l2.941,1.7a.453.453,0,0,0,.679-.394v-1.394h1.117a1.14,1.14,0,0,0,1.14-1.14V161.742A1.139,1.139,0,0,0,81.011,160.6Zm.577,11.815a.577.577,0,0,1-.577.577H65.34a.577.577,0,0,1-.577-.577V161.742a.577.577,0,0,1,.577-.577H81.011a.577.577,0,0,1,.577.577v10.673Z" transform="translate(-64.2 -160.6)" fill="#1a1a1a"/>
  <path id="Path_34354" data-name="Path 34354" d="M215.077,362.709h-9.022a.354.354,0,0,1,0-.709h9.022a.354.354,0,0,1,0,.709Zm2.22,2.026H206.054a.354.354,0,1,1,0-.709H217.3a.354.354,0,1,1,0,.709Zm0,2.026H206.054a.354.354,0,0,1,0-.709H217.3a.354.354,0,1,1,0,.709Z" transform="translate(-202.751 -357.803)" fill="#b8b0b2"/>
  <path id="Path_34355" data-name="Path 34355" d="M211.477,353.709h-9.02a.354.354,0,0,1,0-.709h9.02a.354.354,0,0,1,0,.709Zm2.22,2.024h-11.24a.354.354,0,0,1,0-.709H213.7a.354.354,0,1,1,0,.709Zm0,2.026H202.454a.354.354,0,0,1,0-.709H213.7a.354.354,0,1,1,0,.709Z" transform="translate(-199.226 -348.99)" fill="#353334"/>
  <path id="Path_34356" data-name="Path 34356" d="M610.632,731.553l2.759,1.592a.425.425,0,0,0,.637-.369v-1.307h-3.5A.353.353,0,0,0,610.632,731.553Z" transform="translate(-599.144 -719.571)" fill="#e2e3e5"/>
</svg>
