<svg id="icon_home" xmlns="http://www.w3.org/2000/svg" width="21.098" height="20.365" viewBox="0 0 21.098 20.365">
  <path id="Path_34328" data-name="Path 34328" d="M439.4,281.737H428.225l1.207,15.428H438.2Z" transform="translate(-419.644 -277.169)" fill="#47a7dd"/>
  <path id="Path_34329" data-name="Path 34329" d="M428.225,281.737l1.207,15.428H431.9l-1.01-15.428Z" transform="translate(-419.644 -277.169)" fill="#3d98c1"/>
  <path id="Path_34330" data-name="Path 34330" d="M101.281,785.931H88.109v1.537a1.717,1.717,0,0,0,1.716,1.717h9.738a1.717,1.717,0,0,0,1.717-1.716v-1.537h0Z" transform="translate(-87.74 -769.19)" fill="#ffca6c"/>
  <path id="Path_34331" data-name="Path 34331" d="M90.471,787.468v-1.537H88.109v1.537a1.717,1.717,0,0,0,1.716,1.717h2.362a1.717,1.717,0,0,1-1.717-1.717Z" transform="translate(-87.74 -769.19)" fill="#e2ae5a"/>
  <path id="Path_34332" data-name="Path 34332" d="M88.109,554.472h13.171v-1.537a1.717,1.717,0,0,0-1.716-1.717H89.826a1.717,1.717,0,0,0-1.717,1.716Z" transform="translate(-87.74 -540.145)" fill="#ffca6c"/>
  <path id="Path_34333" data-name="Path 34333" d="M90.471,552.936v1.537H88.109v-1.537a1.717,1.717,0,0,1,1.716-1.717h2.362a1.717,1.717,0,0,0-1.717,1.717Z" transform="translate(-87.74 -540.145)" fill="#e2ae5a"/>
  <path id="Path_34334" data-name="Path 34334" d="M129.023,685.966h-9.288a1.207,1.207,0,1,0,0,2.414h9.288a1.207,1.207,0,1,0,0-2.414Z" transform="translate(-117.424 -671.638)" fill="#dd852c"/>
  <path id="Path_34335" data-name="Path 34335" d="M120.942,687.173a1.207,1.207,0,0,1,1.207-1.207h-2.414a1.207,1.207,0,1,0,0,2.414h2.414A1.207,1.207,0,0,1,120.942,687.173Z" transform="translate(-117.424 -671.638)" fill="#c16d21"/>
  <path id="Path_34336" data-name="Path 34336" d="M400.469,109.54H388.683l-.666,2.519h13.119Zm-1.248-1.679h-9.29l-.209,1.679h9.708Z" transform="translate(-380.406 -107.492)" fill="#f2f2f2"/>
  <path id="Path_34337" data-name="Path 34337" d="M391.664,107.861h-1.733l-.209,1.679h-1.039l-.666,2.519h3.594l.892-2.519-.84-.053" transform="translate(-380.406 -107.492)" fill="#e6e6e6"/>
  <path id="Path_34338" data-name="Path 34338" d="M86.727,109.311a.369.369,0,0,0-.369-.369h-.608a1.57,1.57,0,0,0,0-1.676h.608a.369.369,0,0,0,.369-.369v-1.537a2.088,2.088,0,0,0-2.086-2.086H74.9a2.089,2.089,0,0,0-2.086,2.086V106.9a.369.369,0,0,0,.369.369h.608a1.571,1.571,0,0,0,0,1.676h-.608a.369.369,0,0,0-.369.369v1.537a2.088,2.088,0,0,0,2.086,2.086h6.5a.369.369,0,1,0,0-.738H74.9a1.349,1.349,0,0,1-1.348-1.347v-1.168H85.989v1.168a1.349,1.349,0,0,1-1.348,1.348h-2a.369.369,0,1,0,0,.738h2a2.088,2.088,0,0,0,2.086-2.086v-1.537h0Zm-11.6-.369a.838.838,0,0,1,0-1.676h1.258a.369.369,0,0,0,0-.738h-2.83v-1.168a1.349,1.349,0,0,1,1.348-1.347h9.738a1.349,1.349,0,0,1,1.347,1.347v1.168H77.542a.369.369,0,1,0,0,.738h6.874a.838.838,0,0,1,0,1.676ZM92.2,101.9a.369.369,0,0,0-.4.339l-.779,9.956H86.891a.369.369,0,1,0,0,.738H91.37a.369.369,0,0,0,.368-.34l.805-10.3a.37.37,0,0,0-.34-.4Zm1.7-4.858-.667-2.519a.369.369,0,0,0-.357-.275h-.713L92,92.894a.369.369,0,0,0-.366-.324H85.344a.369.369,0,0,0,0,.738h5.962l.117.941H82.552l.117-.941h1.445a.369.369,0,0,0,0-.738H82.343a.369.369,0,0,0-.366.324l-.169,1.356H81.1a.369.369,0,0,0-.357.275l-.666,2.519a.369.369,0,0,0,.357.464h.629l.376,4.808a.369.369,0,0,0,.736-.057l-.371-4.75H92.177l-.266,3.406a.369.369,0,1,0,.736.058l.271-3.463h.629a.37.37,0,0,0,.357-.464Zm-13-.275.471-1.78H92.6l.471,1.78H80.908Z" transform="translate(-72.818 -92.57)"/>
</svg>
