<svg xmlns="http://www.w3.org/2000/svg" width="19.604" height="16.52" viewBox="0 0 19.604 16.52">
  <g id="icon_cart" transform="translate(3488.395 -960.503)">
    <path id="Path_34383" data-name="Path 34383" d="M-5777.908,623.941h0l-10.052-.582a31.324,31.324,0,0,0,.511,4.433c.263.438,1.389,5.773,1.389,5.773l12,.617,1.727-.433,2.513-10.083-9.492-.863Z" transform="translate(2300.407 342.763)" fill="#ffd54f"/>
    <path id="Path_34382" data-name="Path 34382" d="M19.313,45.826a1.355,1.355,0,0,0-1.066-.511H14.472l-2.047-4.688a.574.574,0,1,0-1.053.46l1.847,4.228H6.386l1.847-4.228a.574.574,0,1,0-1.053-.46L5.132,45.315H1.357a1.355,1.355,0,0,0-1.066.511,1.322,1.322,0,0,0-.257,1.125L2.05,55.758A1.346,1.346,0,0,0,3.373,56.8H16.231a1.346,1.346,0,0,0,1.323-1.044l2.016-8.807A1.322,1.322,0,0,0,19.313,45.826Zm-3.082,9.827H3.373a.205.205,0,0,1-.2-.152L1.153,46.695a.175.175,0,0,1,.036-.153.209.209,0,0,1,.167-.078H4.63l-.15.345a.574.574,0,1,0,1.053.46l.351-.8H13.72l.351.8a.574.574,0,0,0,1.053-.46l-.15-.345h3.274a.209.209,0,0,1,.167.078.175.175,0,0,1,.036.153L16.435,55.5A.206.206,0,0,1,16.231,55.654Z" transform="translate(-3488.395 920.221)" fill="#4e4e4e"/>
  </g>
</svg>
